{
	"asset":{
		"generator":"Khronos glTF Blender I/O v4.4.55",
		"version":"2.0"
	},
	"extensionsUsed":[
		"KHR_materials_specular"
	],
	"scene":0,
	"scenes":[
		{
			"name":"Scene",
			"nodes":[
				0
			]
		}
	],
	"nodes":[
		{
			"mesh":0,
			"name":"9e7dec22-bb4c-4ac1-b239-4606fc08a12d",
			"rotation":[
				0,
				0.7071067094802856,
				0,
				0.7071068286895752
			],
			"scale":[
				0.021632647141814232,
				0.021632647141814232,
				0.021632647141814232
			],
			"translation":[
				4.5945143699646,
				0.08603578805923462,
				3.532655954360962
			]
		}
	],
	"materials":[
		{
			"doubleSided":true,
			"extensions":{
				"KHR_materials_specular":{
					"specularFactor":0.6666659712791443
				}
			},
			"name":"terrain_material",
			"pbrMetallicRoughness":{
				"metallicFactor":0
			}
		},
		{
			"doubleSided":true,
			"extensions":{
				"KHR_materials_specular":{
					"specularFactor":0
				}
			},
			"name":"buildings_material",
			"pbrMetallicRoughness":{
				"baseColorFactor":[
					0.699999988079071,
					0.699999988079071,
					0.699999988079071,
					1
				],
				"metallicFactor":0
			}
		}
	],
	"meshes":[
		{
			"name":"9e7dec22-bb4c-4ac1-b239-4606fc08a12d",
			"primitives":[
				{
					"attributes":{
						"POSITION":0,
						"NORMAL":1,
						"TEXCOORD_0":2
					},
					"indices":3,
					"material":0
				},
				{
					"attributes":{
						"POSITION":4,
						"NORMAL":5,
						"TEXCOORD_0":6
					},
					"indices":7,
					"material":1
				}
			]
		}
	],
	"accessors":[
		{
			"bufferView":0,
			"componentType":5126,
			"count":4898,
			"max":[
				341.9734802246094,
				19.60750961303711,
				0
			],
			"min":[
				0,
				0,
				-414.15582275390625
			],
			"type":"VEC3"
		},
		{
			"bufferView":1,
			"componentType":5126,
			"count":4898,
			"type":"VEC3"
		},
		{
			"bufferView":2,
			"componentType":5126,
			"count":4898,
			"type":"VEC2"
		},
		{
			"bufferView":3,
			"componentType":5123,
			"count":4935,
			"type":"SCALAR"
		},
		{
			"bufferView":4,
			"componentType":5126,
			"count":3916,
			"max":[
				341.9734802246094,
				31.2969970703125,
				-12.923032760620117
			],
			"min":[
				0,
				0.7376859784126282,
				-414.15582275390625
			],
			"type":"VEC3"
		},
		{
			"bufferView":5,
			"componentType":5126,
			"count":3916,
			"type":"VEC3"
		},
		{
			"bufferView":6,
			"componentType":5126,
			"count":3916,
			"type":"VEC2"
		},
		{
			"bufferView":7,
			"componentType":5123,
			"count":6648,
			"type":"SCALAR"
		}
	],
	"bufferViews":[
		{
			"buffer":0,
			"byteLength":58776,
			"byteOffset":0,
			"target":34962
		},
		{
			"buffer":0,
			"byteLength":58776,
			"byteOffset":58776,
			"target":34962
		},
		{
			"buffer":0,
			"byteLength":39184,
			"byteOffset":117552,
			"target":34962
		},
		{
			"buffer":0,
			"byteLength":9870,
			"byteOffset":156736,
			"target":34963
		},
		{
			"buffer":0,
			"byteLength":46992,
			"byteOffset":166608,
			"target":34962
		},
		{
			"buffer":0,
			"byteLength":46992,
			"byteOffset":213600,
			"target":34962
		},
		{
			"buffer":0,
			"byteLength":31328,
			"byteOffset":260592,
			"target":34962
		},
		{
			"buffer":0,
			"byteLength":13296,
			"byteOffset":291920,
			"target":34963
		}
	],
	"buffers":[
		{
			"byteLength":305216,
			"uri":"kandai-campas.bin"
		}
	]
}
