{
	"asset":{
		"generator":"Khronos glTF Blender I/O v4.4.55",
		"version":"2.0"
	},
	"scene":0,
	"scenes":[
		{
			"name":"Scene",
			"nodes":[
				0,
				1
			]
		}
	],
	"nodes":[
		{
			"mesh":0,
			"name":"kandai-senriyama-edited (3)",
			"scale":[
				0.00024504007888026536,
				0.00024504007888026536,
				0.00024504007888026536
			],
			"translation":[
				-4.27804708480835,
				-0.07063481211662292,
				5.006478786468506
			]
		},
		{
			"mesh":1,
			"name":"kandai-senriyama-edited (4)",
			"scale":[
				0.00024504007888026536,
				0.00024504007888026536,
				0.00024504007888026536
			],
			"translation":[
				-4.27804708480835,
				-0.04283111169934273,
				5.006478786468506
			]
		}
	],
	"materials":[
		{
			"doubleSided":true,
			"name":"\u30de\u30c6\u30ea\u30a2\u30eb",
			"pbrMetallicRoughness":{
				"baseColorFactor":[
					0.22292697429656982,
					0.22292697429656982,
					0.22292697429656982,
					1
				],
				"metallicFactor":0,
				"roughnessFactor":0.8011363744735718
			}
		},
		{
			"doubleSided":true,
			"name":"\u30de\u30c6\u30ea\u30a2\u30eb.001",
			"pbrMetallicRoughness":{
				"baseColorFactor":[
					0.39495745301246643,
					0.39495745301246643,
					0.39495745301246643,
					1
				],
				"metallicFactor":0.22296234965324402,
				"roughnessFactor":0.40340906381607056
			}
		}
	],
	"meshes":[
		{
			"name":"kandai-senriyama-edited (3)",
			"primitives":[
				{
					"attributes":{
						"POSITION":0,
						"NORMAL":1
					},
					"indices":2,
					"material":0
				}
			]
		},
		{
			"name":"kandai-senriyama-edited (4)",
			"primitives":[
				{
					"attributes":{
						"POSITION":3,
						"NORMAL":4
					},
					"indices":5,
					"material":1
				}
			]
		}
	],
	"accessors":[
		{
			"bufferView":0,
			"componentType":5126,
			"count":6640,
			"max":[
				35420.7734375,
				1770.8470458984375,
				-76.53866577148438
			],
			"min":[
				-12.315995216369629,
				6.6882643699646,
				-43777.3515625
			],
			"type":"VEC3"
		},
		{
			"bufferView":1,
			"componentType":5126,
			"count":6640,
			"type":"VEC3"
		},
		{
			"bufferView":2,
			"componentType":5123,
			"count":6660,
			"type":"SCALAR"
		},
		{
			"bufferView":3,
			"componentType":5126,
			"count":25490,
			"max":[
				35231.30859375,
				3330.16796875,
				115.31201934814453
			],
			"min":[
				-24.73048973083496,
				337.5931396484375,
				-42487.08203125
			],
			"type":"VEC3"
		},
		{
			"bufferView":4,
			"componentType":5126,
			"count":25490,
			"type":"VEC3"
		},
		{
			"bufferView":5,
			"componentType":5123,
			"count":30465,
			"type":"SCALAR"
		}
	],
	"bufferViews":[
		{
			"buffer":0,
			"byteLength":79680,
			"byteOffset":0,
			"target":34962
		},
		{
			"buffer":0,
			"byteLength":79680,
			"byteOffset":79680,
			"target":34962
		},
		{
			"buffer":0,
			"byteLength":13320,
			"byteOffset":159360,
			"target":34963
		},
		{
			"buffer":0,
			"byteLength":305880,
			"byteOffset":172680,
			"target":34962
		},
		{
			"buffer":0,
			"byteLength":305880,
			"byteOffset":478560,
			"target":34962
		},
		{
			"buffer":0,
			"byteLength":60930,
			"byteOffset":784440,
			"target":34963
		}
	],
	"buffers":[
		{
			"byteLength":845372,
			"uri":"kandai-senriyama.bin"
		}
	]
}
